# xmcd
#
# Track frame offsets:
#	150
#	16313
#	30118
#	45168
#	59255
#	71440
#	88989
#	103524
#	118603
#	133924
#	150191
#	174737
#	194446
#
# Disc length: 2674 seconds
#
# Revision: 1
# Processed by: cddbd v1.5.2PL0 Copyright (c) Steve Scherf et al.
# Submitted via: audiograbber 1.83.01
#
DISCID=9f0a700d
DTITLE=Steve Schuffert Band - Destination Anywhere
DYEAR=2010
DGENRE=BluesRock
TTITLE0=A Good Time All The Time
TTITLE1=Old Love New
TTITLE2=When Love Comes Around
TTITLE3=Runnin' Away
TTITLE4=Straight Down The Line
TTITLE5=Johnny's Going To Jail
TTITLE6=Back On The Road Again
TTITLE7=That Ain't Love
TTITLE8=Destination Anywhere
TTITLE9=Caroline
TTITLE10=Riding On Rims
TTITLE11=Lost And Found
TTITLE12=Departure
EXTD=
EXTT0=
EXTT1=
EXTT2=
EXTT3=
EXTT4=
EXTT5=
EXTT6=
EXTT7=
EXTT8=
EXTT9=
EXTT10=
EXTT11=
EXTT12=
PLAYORDER=
